<svg id="Layer_1" data-name="Layer 1" xmlns="http://www.w3.org/2000/svg" xmlns:xlink="http://www.w3.org/1999/xlink" viewBox="0 0 792.74 1024"><defs><style>.cls-1{fill:#000015;}.cls-2{fill:url(#linear-gradient);}.cls-3{fill:#ed1c24;}.cls-4{fill:url(#linear-gradient-2);}.cls-5{fill:url(#linear-gradient-3);}</style><linearGradient id="linear-gradient" x1="258.16" y1="788.85" x2="544.24" y2="447.91" gradientUnits="userSpaceOnUse"><stop offset="0" stop-color="#0010ef"/><stop offset="0.13" stop-color="#004ab5"/><stop offset="0.42" stop-color="#00d926"/><stop offset="0.49" stop-color="lime"/><stop offset="0.65" stop-color="#5f0"/><stop offset="0.87" stop-color="#ceff00"/><stop offset="0.97" stop-color="#ff0"/></linearGradient><linearGradient id="linear-gradient-2" x1="229.99" y1="652.3" x2="229.99" y2="318.84" gradientUnits="userSpaceOnUse"><stop offset="0" stop-color="#1b1464"/><stop offset="1" stop-color="red"/></linearGradient><linearGradient id="linear-gradient-3" x1="196.66" y1="388.65" x2="560.83" y2="388.65" gradientUnits="userSpaceOnUse"><stop offset="0" stop-color="red"/><stop offset="0.62" stop-color="#ff0" stop-opacity="0.9"/><stop offset="1" stop-color="lime"/></linearGradient></defs><title>Gradient Play Logo</title><rect class="cls-1" width="792.74" height="1024"/><path class="cls-2" d="M576.57,475.47c26.08,16.9,26.08,56.12,0,73L260.64,753.19C233.73,770.63,199,751.92,196.73,720l64.89-45,.27-.51L512.23,513.2c59.9-37.54,48-48.23,46.85-49.06Z" transform="translate(0 0.02)"/><path class="cls-3" d="M263.38,349.74l-1.76-1.13V605.9l-65,46.4V326S197.63,299,263.38,349.74Z" transform="translate(0 0.02)"/><path class="cls-4" d="M263.38,349.74l-1.76-1.13V605.9l-65,46.4V326S197.63,299,263.38,349.74Z" transform="translate(0 0.02)"/><path class="cls-5" d="M559.14,464.14c1.11.83,13.05,11.52-46.85,49.06l2.41-1.56L263.44,349.74C197.69,299,196.66,326,196.66,326V307.28c0-33.91,36.2-54.54,64-36.51L559.06,464.09Z" transform="translate(0 0.02)"/></svg>